#!OML:ASF E:\CV Data\Top Level 1\Subject 1\Session 1\player.ASF
:FULLY-SPECIFIED
:DEGREES
483
root 0.542836 16.3544 9.75558 -147.313 -213.303 171.253
lowerback 26.5761 8.6827 4.58115
upperback 4.33655 12.7641 3.09032
thorax -9.38936 5.85118 -3.36022
lowerneck 6.01416 -18.6019 -15.6921
upperneck -30.9279 -21.4502 33.256
head -3.89577 -12.7011 13.7935
rclavicle -9.54166e-014 5.40694e-014
rhumerus 200.3 77.5329 90.7043
rradius 59.019
rwrist -0.49983
rhand -21.2631 25.0789
rfingers 7.12502
rthumb 5.12034 -4.8392
lclavicle -9.54166e-014 5.40694e-014
lhumerus -31.3778 10.2394 69.4143
lradius 51.8719
lwrist 12.2796
lhand -30.6658 14.5754
lfingers 7.12502
lthumb -3.9604 44.5184
rfemur 0.904491 -2.64673 26.7522
rtibia 53.5163
rfoot 16.9567 -10.7628
rtoes 17.2595
lfemur -77.6278 -3.28873 -17.722
ltibia 36.6197
lfoot 6.41248 -19.9139
ltoes 13.5962
484
root 0.512055 16.3857 9.79658 -147.627 -213.308 170.95
lowerback 26.2987 8.65253 4.55071
upperback 4.34887 12.7045 3.08672
thorax -9.2438 5.83737 -3.2859
lowerneck 5.98228 -18.559 -15.7906
upperneck -30.678 -21.4155 33.3707
head -3.78898 -12.6794 13.8115
rclavicle -9.54166e-015 -2.70347e-014
rhumerus 203.009 76.9816 94.7783
rradius 60.994
rwrist -4.01161
rhand -19.5708 25.7219
rfingers 7.12502
rthumb 6.75412 -4.1504
lclavicle -9.54166e-015 -2.70347e-014
lhumerus -32.2491 10.8804 68.5753
lradius 52.37
lwrist 13.8668
lhand -30.585 15.123
lfingers 7.12502
lthumb -3.88234 45.0674
rfemur 0.769871 -1.83897 26.0356
rtibia 54.2624
rfoot 16.4412 -12.1948
rtoes 18.2198
lfemur -77.2553 -3.23623 -16.9919
ltibia 36.4425
lfoot 6.33771 -19.4859
ltoes 13.1567
485
root 0.482511 16.4163 9.83528 -148.026 -213.271 170.629
lowerback 26.087 8.61424 4.52258
upperback 4.36324 12.6372 3.07388
thorax -9.12682 5.81713 -3.23047
lowerneck 5.92666 -18.5127 -15.8898
upperneck -30.4179 -21.3713 33.506
head -3.67371 -12.653 13.834
rclavicle 1.11319e-014 -3.65764e-014
rhumerus 205.453 76.6164 98.6879
rradius 62.9413
rwrist -7.71067
rhand -17.9605 25.9519
rfingers 7.12502
rthumb 8.30847 -3.86469
lclavicle 1.11319e-014 -3.65764e-014
lhumerus -33.1104 11.4451 67.7715
lradius 52.8278
lwrist 15.3573
lhand -30.4543 15.6371
lfingers 7.12502
lthumb -3.75621 45.5837
rfemur 0.659485 -1.22093 25.2648
rtibia 54.9663
rfoot 15.7931 -13.6279
rtoes 19.041
lfemur -76.8117 -3.16395 -16.2701
ltibia 36.295
lfoot 6.24992 -19.0472
ltoes 12.7138
486
root 0.453954 16.4466 9.87172 -148.502 -213.196 170.292
lowerback 25.9488 8.56797 4.49471
upperback 4.37169 12.5623 3.049
thorax -9.05135 5.78976 -3.1979
lowerneck 5.83921 -18.4669 -15.9857
upperneck -30.137 -21.3239 33.6591
head -3.54515 -12.6242 13.8559
rclavicle 9.54166e-015 -2.8625e-014
rhumerus 207.943 76.4794 102.732
rradius 64.7704
rwrist -10.9274
rhand -16.6491 25.959
rfingers 7.12502
rthumb 9.57389 -3.8035
lclavicle 9.54166e-015 -2.8625e-014
lhumerus -33.9714 11.9083 67.0093
lradius 53.2582
lwrist 16.7023
lhand -30.2868 16.1459
lfingers 7.12502
lthumb -3.59444 46.0953
rfemur 0.562302 -0.799027 24.4431
rtibia 55.6174
rfoot 15.0382 -14.995
rtoes 19.8104
lfemur -76.2987 -3.06958 -15.566
ltibia 36.1675
lfoot 6.15162 -18.6118
ltoes 12.2557
487
root 0.426206 16.4769 9.90601 -149.049 -213.086 169.941
lowerback 25.8656 8.52262 4.45019
upperback 4.38268 12.4879 3.03319
thorax -9.00671 5.76085 -3.15569
lowerneck 5.73919 -18.4214 -16.0891
upperneck -29.8605 -21.2759 33.82
head -3.41373 -12.5939 13.8808
rclavicle 3.49861e-014 -5.24792e-014
rhumerus 210.638 76.5617 107.09
rradius 66.3844
rwrist -13.1158
rhand -15.8133 25.7734
rfingers 7.12502
rthumb 10.3802 -3.95042
lclavicle 3.49861e-014 -5.24792e-014
lhumerus -34.831 12.2806 66.3231
lradius 53.6569
lwrist 17.8316
lhand -30.0666 16.6526
lfingers 7.12502
lthumb -3.38178 46.6055
rfemur 0.465995 -0.57149 23.5796
rtibia 56.2119
rfoot 14.2163 -16.2454
rtoes 20.6132
lfemur -75.7168 -2.95279 -14.8856
ltibia 36.0529
lfoot 6.04737 -18.1902
ltoes 11.8013
488
root 0.398946 16.5075 9.93837 -149.666 -212.944 169.574
lowerback 25.8443 8.47151 4.40009
upperback 4.3915 12.408 3.01798
thorax -8.99774 5.72678 -3.11811
lowerneck 5.6199 -18.3752 -16.2047
upperneck -29.5795 -21.2256 33.9983
head -3.27374 -12.5611 13.9109
rclavicle -1.1291e-013 -3.18055e-015
rhumerus 213.649 76.8302 111.846
rradius 67.6959
rwrist -13.9806
rhand -15.7578 25.7731
rfingers 7.12502
rthumb 10.4338 -3.94801
lclavicle -1.1291e-013 -3.18055e-015
lhumerus -35.6872 12.5968 65.6976
lradius 54.0047
lwrist 18.6852
lhand -29.7771 17.1396
lfingers 7.12502
lthumb -3.1022 47.0967
rfemur 0.36493 -0.540542 22.6802
rtibia 56.7486
rfoot 13.3571 -17.3374
rtoes 21.3789
lfemur -75.0657 -2.81326 -14.2272
ltibia 35.9456
lfoot 5.93566 -17.7864
ltoes 11.3353
